<?xml version="1.0"?>
<svg width="23.999999999999996" height="23.999999999999996" xmlns="http://www.w3.org/2000/svg" xmlns:svg="http://www.w3.org/2000/svg" data-name="Layer 1">
 <g class="layer">
  <title>Layer 1</title>
  <path d="m22.75,21.38l-17.97,-0.1a3,3 0 0 1 -2.27,-2.43l0.06,-17.47a1,1 0 0 0 -2.6,-0.13l0.03,17.73a5.01,5.01 0 0 0 5,5l17.84,0.03a1,1 0 0 0 -0.1,-2.64z" id="svg_2"/>
  <path d="m22.28,3.12l-13.08,2.7a1,1 0 0 0 -0.79,0.52l-3.24,11.75a1,1 0 0 0 2.56,0.74l2.8,-10.72a1.5,1.5 0 0 0 -0.45,0.13a1,1 0 0 0 0.76,-0.28l12.66,-2.8a1,1 0 0 0 0.35,-1.41l-0.19,-0.34a1.5,1.5 0 0 0 -1.37,-0.29z" id="svg_1"/>&quot; id=&quot;svg_1&quot;/&gt;z&quot; id=&quot;svg_1&quot;/&gt;</g>
</svg>